<?xml version="1.0" standalone="no"?>
<!DOCTYPE svg PUBLIC "-//W3C//DTD SVG 20010904//EN"
 "http://www.w3.org/TR/2001/REC-SVG-20010904/DTD/svg10.dtd">
<svg version="1.0" xmlns="http://www.w3.org/2000/svg"
 width="1024.000000pt" height="1024.000000pt" viewBox="0 0 1024.000000 1024.000000"
 preserveAspectRatio="xMidYMid meet">
<metadata>
Created by potrace 1.14, written by Peter Selinger 2001-2017
</metadata>
<g transform="translate(0.000000,1024.000000) scale(0.100000,-0.100000)"
fill="#000000" stroke="none">
<path d="M2137 9752 c-26 -2 -46 -6 -43 -10 2 -4 -15 -6 -37 -6 -23 1 -55 -3
-72 -8 -16 -5 -48 -11 -70 -14 -21 -3 -43 -8 -47 -10 -5 -3 -20 -7 -34 -10
-74 -13 -255 -84 -247 -97 3 -6 1 -7 -5 -3 -9 6 -119 -40 -132 -55 -3 -3 -17
-12 -31 -20 -76 -40 -106 -59 -124 -76 -11 -11 -28 -22 -38 -26 -11 -4 -15
-12 -11 -19 4 -7 4 -10 -1 -6 -17 15 -240 -186 -228 -205 3 -6 2 -7 -4 -4 -5
3 -20 -8 -34 -24 -13 -17 -37 -45 -53 -62 -48 -53 -146 -208 -139 -220 3 -5 1
-7 -4 -4 -13 8 -26 -20 -16 -35 3 -6 2 -8 -4 -5 -20 13 -142 -270 -127 -294 4
-7 3 -9 -3 -6 -13 8 -56 -154 -69 -257 -3 -21 -9 -59 -14 -85 -10 -56 -6
-6132 5 -6178 5 -23 11 -30 24 -27 15 5 15 5 -1 -5 -15 -10 -15 -16 -2 -68 8
-32 17 -69 20 -83 6 -31 32 -118 44 -145 4 -11 18 -47 31 -80 22 -59 96 -205
108 -215 3 -3 7 -10 8 -17 4 -17 112 -173 163 -234 77 -91 171 -180 182 -173
7 4 8 3 4 -4 -9 -15 154 -144 174 -137 8 4 11 3 8 -1 -4 -3 -2 -12 5 -18 23
-22 115 -75 121 -69 3 4 6 1 6 -6 0 -8 6 -11 16 -7 8 3 13 2 10 -3 -11 -17
237 -119 383 -157 75 -20 119 -27 168 -28 22 -1 39 -4 37 -7 -7 -11 65 -16 76
-5 7 7 10 6 10 -1 0 -12 26 -13 349 -13 123 1 228 3 232 6 5 3 9 1 9 -3 0 -5
17 -7 38 -5 67 5 1402 7 1402 2 0 -4 15 -4 33 -3 56 6 447 8 447 3 0 -3 17 -4
38 -2 67 5 1402 7 1402 2 0 -4 15 -4 33 -3 72 8 447 7 447 0 0 -5 4 -6 9 -3 4
3 351 6 770 7 684 1 762 2 756 16 -4 13 -3 14 9 4 8 -7 23 -10 33 -7 10 2 36
7 58 11 87 12 155 28 155 36 0 5 6 6 13 4 18 -7 232 71 230 83 -2 6 3 9 11 6
24 -9 306 145 306 168 0 6 3 8 7 5 9 -10 34 14 26 26 -3 6 -1 7 6 3 21 -13
276 217 267 241 -3 7 1 10 10 6 7 -3 14 -1 14 4 0 6 11 22 25 37 14 15 22 32
19 38 -4 6 -3 8 3 5 10 -6 53 44 53 62 0 5 4 11 9 13 41 15 244 439 225 470
-3 4 -1 8 4 8 5 0 12 10 15 23 3 12 12 49 20 82 9 33 18 80 22 105 4 25 10 64
14 86 5 24 4 49 -2 59 -6 11 -6 16 0 12 12 -8 16 76 13 273 0 8 1 37 3 63 1
26 0 52 -3 58 -4 5 -33 9 -66 9 -32 -1 -72 0 -89 1 -16 0 -91 2 -165 4 -74 1
-140 3 -146 4 -8 1 -11 740 -11 2606 l0 2605 56 1 c31 0 138 1 239 2 141 2
181 5 177 15 -2 6 -1 12 3 12 8 0 7 154 -1 167 -3 5 -2 15 3 23 4 7 4 24 -1
37 -5 15 -5 23 2 23 6 0 8 3 6 8 -3 4 -8 54 -12 112 -3 57 -9 108 -12 113 -3
5 -8 32 -10 61 -3 28 -9 59 -14 68 -5 9 -9 26 -9 36 0 11 -11 53 -25 94 -14
40 -28 80 -30 89 -22 97 -205 426 -228 412 -7 -3 -9 -3 -5 2 14 15 -56 110
-73 99 -5 -3 -6 1 -4 8 6 16 -189 215 -206 210 -6 -1 -8 2 -4 7 3 6 -4 15 -16
21 -11 7 -31 21 -44 32 -13 11 -26 18 -29 17 -3 -2 -13 6 -21 19 -9 12 -23 22
-31 22 -8 0 -14 3 -14 8 0 9 -39 32 -175 106 -91 50 -300 128 -370 140 -16 2
-30 5 -30 6 0 2 -27 9 -65 15 -19 3 -62 11 -95 17 -89 15 -627 20 -618 5 5 -9
3 -9 -8 -1 -16 13 -58 13 -78 0 -9 -6 -12 -5 -8 1 4 7 -34 10 -113 10 -84 0
-117 -3 -113 -11 5 -8 3 -8 -8 0 -16 13 -58 13 -78 0 -9 -6 -12 -5 -8 0 4 7
-273 10 -753 10 -533 0 -757 -3 -753 -10 5 -7 2 -7 -8 0 -16 13 -58 13 -78 0
-9 -6 -12 -5 -8 1 4 7 -34 10 -113 10 -84 0 -117 -3 -113 -11 5 -8 3 -8 -8 0
-16 13 -58 13 -78 0 -9 -6 -12 -5 -8 1 4 6 -268 9 -753 9 -531 0 -757 -3 -752
-10 4 -7 1 -7 -9 0 -16 13 -58 13 -78 0 -9 -6 -12 -5 -8 1 4 7 -34 10 -113 10
-84 0 -117 -3 -113 -11 5 -8 3 -8 -8 0 -16 13 -58 13 -78 0 -9 -6 -12 -5 -8 1
5 9 -1026 13 -1156 5z m1813 -136 c0 -2 -8 -10 -17 -17 -16 -13 -17 -12 -4 4
13 16 21 21 21 13z m953 -11 c-3 -9 -8 -14 -10 -11 -3 3 -2 9 2 15 9 16 15 13
8 -4z m963 0 c-1 -8 -5 -17 -8 -21 -5 -4 -4 16 1 34 3 9 9 -1 7 -13z m1924 11
c0 -2 -8 -10 -17 -17 -16 -13 -17 -12 -4 4 13 16 21 21 21 13z m395 -15 c3 -5
2 -12 -3 -15 -5 -3 -9 1 -9 9 0 17 3 19 12 6z m-6210 -80 c-9 -8 -36 -10 -30
-2 2 4 11 8 20 8 8 0 13 -3 10 -6z m-289 -47 c1 -9 0 -13 -4 -10 -3 4 -7 14
-8 22 -1 9 0 13 4 10 3 -4 7 -14 8 -22z m6380 -29 c-1 -8 -5 -17 -8 -21 -5 -4
-4 16 1 34 3 9 9 -1 7 -13z m-4325 -18 c-10 -9 -11 -8 -5 6 3 10 9 15 12 12 3
-3 0 -11 -7 -18z m1920 0 c-10 -9 -11 -8 -5 6 3 10 9 15 12 12 3 -3 0 -11 -7
-18z m1920 0 c-10 -9 -11 -8 -5 6 3 10 9 15 12 12 3 -3 0 -11 -7 -18z m-4846
-47 c-3 -5 -12 -10 -18 -10 -7 0 -6 4 3 10 19 12 23 12 15 0z m1600 0 c-3 -5
-12 -10 -18 -10 -7 0 -6 4 3 10 19 12 23 12 15 0z m640 0 c-3 -5 -12 -10 -18
-10 -7 0 -6 4 3 10 19 12 23 12 15 0z m1600 0 c-3 -5 -12 -10 -18 -10 -7 0 -6
4 3 10 19 12 23 12 15 0z m-5129 -55 c-1 -8 -5 -17 -8 -21 -5 -4 -4 16 1 34 3
9 9 -1 7 -13z m6800 0 c-1 -8 -5 -17 -8 -21 -5 -4 -4 16 1 34 3 9 9 -1 7 -13z
m-6863 -40 c-3 -9 -8 -14 -10 -11 -3 3 -2 9 2 15 9 16 15 13 8 -4z m463 -51
c1 -9 0 -13 -4 -10 -3 4 -7 14 -8 22 -1 9 0 13 4 10 3 -4 7 -14 8 -22z m-181
-103 c3 -5 2 -12 -3 -15 -5 -3 -9 1 -9 9 0 17 3 19 12 6z m-375 -95 c0 -2 -8
-10 -17 -17 -16 -13 -17 -12 -4 4 13 16 21 21 21 13z m7525 -15 c-9 -8 -36
-10 -30 -2 2 4 11 8 20 8 8 0 13 -3 10 -6z m361 -143 c3 -4 -1 -5 -10 -4 -8 1
-18 5 -22 8 -3 4 1 5 10 4 8 -1 18 -5 22 -8z m-201 -18 c3 -6 -1 -7 -9 -4 -18
7 -21 14 -7 14 6 0 13 -4 16 -10z m255 -214 c0 -2 -7 -7 -16 -10 -8 -3 -12 -2
-9 4 6 10 25 14 25 6z m274 -12 c3 -8 2 -12 -4 -9 -6 3 -10 10 -10 16 0 14 7
11 14 -7z m-8364 -88 c0 -2 -8 -10 -17 -17 -16 -13 -17 -12 -4 4 13 16 21 21
21 13z m-234 -72 c1 -9 0 -13 -4 -10 -3 4 -7 14 -8 22 -1 9 0 13 4 10 3 -4 7
-14 8 -22z m8620 -40 c1 -9 0 -13 -4 -10 -3 4 -7 14 -8 22 -1 9 0 13 4 10 3
-4 7 -14 8 -22z m-8800 -80 c1 -9 0 -13 -4 -10 -3 4 -7 14 -8 22 -1 9 0 13 4
10 3 -4 7 -14 8 -22z m-81 -193 c3 -5 2 -12 -3 -15 -5 -3 -9 1 -9 9 0 17 3 19
12 6z m320 -69 c-3 -3 -11 0 -18 7 -9 10 -8 11 6 5 10 -3 15 -9 12 -12z m-190
-11 c-9 -8 -36 -10 -30 -2 2 4 11 8 20 8 8 0 13 -3 10 -6z m1 -163 c3 -4 -1
-5 -10 -4 -8 1 -18 5 -22 8 -3 4 1 5 10 4 8 -1 18 -5 22 -8z m-71 -227 c3 -5
2 -12 -3 -15 -5 -3 -9 1 -9 9 0 17 3 19 12 6z m-55 -815 c0 -2 -8 -10 -17 -17
-16 -13 -17 -12 -4 4 13 16 21 21 21 13z m125 -715 c-9 -8 -36 -10 -30 -2 2 4
11 8 20 8 8 0 13 -3 10 -6z m1 -163 c3 -4 -1 -5 -10 -4 -8 1 -18 5 -22 8 -3 4
1 5 10 4 8 -1 18 -5 22 -8z m91 -563 c0 -8 -4 -12 -9 -9 -5 3 -6 10 -3 15 9
13 12 11 12 -6z m-141 -441 c1 -9 0 -13 -4 -10 -3 4 -7 14 -8 22 -1 9 0 13 4
10 3 -4 7 -14 8 -22z m129 -273 c-9 -8 -36 -10 -30 -2 2 4 11 8 20 8 8 0 13
-3 10 -6z m55 -225 c0 -2 -8 -10 -17 -17 -16 -13 -17 -12 -4 4 13 16 21 21 21
13z m-190 -10 c0 -2 -8 -10 -17 -17 -16 -13 -17 -12 -4 4 13 16 21 21 21 13z
m55 -245 c-9 -8 -36 -10 -30 -2 2 4 11 8 20 8 8 0 13 -3 10 -6z m1 -163 c3 -4
-1 -5 -10 -4 -8 1 -18 5 -22 8 -3 4 1 5 10 4 8 -1 18 -5 22 -8z m-71 -227 c3
-5 2 -12 -3 -15 -5 -3 -9 1 -9 9 0 17 3 19 12 6z m-55 -815 c0 -2 -8 -10 -17
-17 -16 -13 -17 -12 -4 4 13 16 21 21 21 13z m125 -555 c-9 -8 -36 -10 -30 -2
2 4 11 8 20 8 8 0 13 -3 10 -6z m8840 -61 c3 -6 -1 -7 -9 -4 -18 7 -21 14 -7
14 6 0 13 -4 16 -10z m-8795 -74 c0 -2 -8 -10 -17 -17 -16 -13 -17 -12 -4 4
13 16 21 21 21 13z m66 -152 c1 -9 0 -13 -4 -10 -3 4 -7 14 -8 22 -1 9 0 13 4
10 3 -4 7 -14 8 -22z m-180 -120 c1 -9 0 -13 -4 -10 -3 4 -7 14 -8 22 -1 9 0
13 4 10 3 -4 7 -14 8 -22z m8749 -213 c-9 -8 -36 -10 -30 -2 2 4 11 8 20 8 8
0 13 -3 10 -6z m-165 -261 c0 -5 -5 -10 -11 -10 -5 0 -7 5 -4 10 3 6 8 10 11
10 2 0 4 -4 4 -10z m-114 -82 c3 -4 -1 -5 -10 -4 -8 1 -18 5 -22 8 -3 4 1 5
10 4 8 -1 18 -5 22 -8z m239 3 c-9 -8 -36 -10 -30 -2 2 4 11 8 20 8 8 0 13 -3
10 -6z m-280 -61 c3 -6 -1 -7 -9 -4 -18 7 -21 14 -7 14 6 0 13 -4 16 -10z
m-7947 -25 c-3 -3 -9 2 -12 12 -6 14 -5 15 5 6 7 -7 10 -15 7 -18z m7933 -62
c13 -16 12 -17 -3 -4 -10 7 -18 15 -18 17 0 8 8 3 21 -13z m-7836 -41 c-3 -3
-11 0 -18 7 -9 10 -8 11 6 5 10 -3 15 -9 12 -12z m211 -294 c3 -4 -1 -5 -10
-4 -8 1 -18 5 -22 8 -3 4 1 5 10 4 8 -1 18 -5 22 -8z m240 0 c3 -4 -1 -5 -10
-4 -8 1 -18 5 -22 8 -3 4 1 5 10 4 8 -1 18 -5 22 -8z m-355 -85 c13 -16 12
-17 -3 -4 -17 13 -22 21 -14 21 2 0 10 -8 17 -17z m7084 8 c3 -5 2 -12 -3 -15
-5 -3 -9 1 -9 9 0 17 3 19 12 6z m356 -14 c-10 -9 -11 -8 -5 6 3 10 9 15 12
12 3 -3 0 -11 -7 -18z m-6255 -22 c-1 -8 -5 -17 -8 -21 -5 -4 -4 16 1 34 3 9
9 -1 7 -13z m3840 0 c-1 -8 -5 -17 -8 -21 -5 -4 -4 16 1 34 3 9 9 -1 7 -13z
m2000 0 c-1 -8 -5 -17 -8 -21 -5 -4 -4 16 1 34 3 9 9 -1 7 -13z m-6751 -44
c-9 -8 -36 -10 -30 -2 2 4 11 8 20 8 8 0 13 -3 10 -6z m3281 -3 c3 -4 -1 -5
-10 -4 -8 1 -18 5 -22 8 -3 4 1 5 10 4 8 -1 18 -5 22 -8z m-2526 -2 c0 -2 -8
-10 -17 -17 -16 -13 -17 -12 -4 4 13 16 21 21 21 13z m1600 -10 c0 -2 -7 -7
-16 -10 -8 -3 -12 -2 -9 4 6 10 25 14 25 6z m640 0 c0 -2 -7 -7 -16 -10 -8 -3
-12 -2 -9 4 6 10 25 14 25 6z m1600 0 c0 -2 -7 -7 -16 -10 -8 -3 -12 -2 -9 4
6 10 25 14 25 6z m1600 0 c0 -2 -7 -7 -16 -10 -8 -3 -12 -2 -9 4 6 10 25 14
25 6z m-4884 -32 c1 -9 0 -13 -4 -10 -3 4 -7 14 -8 22 -1 9 0 13 4 10 3 -4 7
-14 8 -22z m3840 0 c1 -9 0 -13 -4 -10 -3 4 -7 14 -8 22 -1 9 0 13 4 10 3 -4
7 -14 8 -22z m-3503 -29 c-3 -9 -8 -14 -10 -11 -3 3 -2 9 2 15 9 16 15 13 8
-4z m1920 0 c-3 -9 -8 -14 -10 -11 -3 3 -2 9 2 15 9 16 15 13 8 -4z m1920 0
c-3 -9 -8 -14 -10 -11 -3 3 -2 9 2 15 9 16 15 13 8 -4z m1443 0 c-1 -8 -5 -17
-8 -21 -5 -4 -4 16 1 34 3 9 9 -1 7 -13z m181 -10 c0 -8 -4 -12 -9 -9 -5 3 -6
10 -3 15 9 13 12 11 12 -6z m-6512 -55 c-3 -5 -12 -10 -18 -10 -7 0 -6 4 3 10
19 12 23 12 15 0z m6080 1 c-9 -8 -36 -10 -30 -2 2 4 11 8 20 8 8 0 13 -3 10
-6z m-5880 -20 c-9 -8 -36 -10 -30 -2 2 4 11 8 20 8 8 0 13 -3 10 -6z m240 0
c-9 -8 -36 -10 -30 -2 2 4 11 8 20 8 8 0 13 -3 10 -6z m3840 0 c-9 -8 -36 -10
-30 -2 2 4 11 8 20 8 8 0 13 -3 10 -6z m-3545 -65 c0 -2 -8 -10 -17 -17 -16
-13 -17 -12 -4 4 13 16 21 21 21 13z m3840 0 c0 -2 -8 -10 -17 -17 -16 -13
-17 -12 -4 4 13 16 21 21 21 13z m-4614 -98 c3 -4 -1 -5 -10 -4 -8 1 -18 5
-22 8 -3 4 1 5 10 4 8 -1 18 -5 22 -8z"/>
</g>
</svg>
